# xmcd CD database file
#
# Track frame offsets:
#	150
#	34170
#	83260
#	161500
#	203357
#	248245
#	271510
#	348320
#
# Disc length: 4785 seconds
#
# Revision: 1
# Processed by: cddbd v1.5.2PL0 Copyright (c) Steve Scherf et al.
# Submitted via: CDex 1.70beta2
#
DISCID=5512af08
DTITLE=Fumio Itabashi - Watarase
DYEAR=2005
DGENRE=Jazz
TTITLE0=Watarase
TTITLE1=Alligator Dance
TTITLE2=Rise and Shine - full edit
TTITLE3=Good-Bye
TTITLE4=Up Into The Sky
TTITLE5=Ash
TTITLE6=Nippon Blues
TTITLE7=Don't Say Goodbye
EXTD=YEAR: 2005
EXTT0=
EXTT1=
EXTT2=
EXTT3=
EXTT4=
EXTT5=
EXTT6=
EXTT7=
PLAYORDER=
